<svg id="Capa_1" enable-background="new 0 0 512 512" height="512" viewBox="0 0 512 512" width="512" xmlns="http://www.w3.org/2000/svg" xmlns:xlink="http://www.w3.org/1999/xlink"><linearGradient id="SVGID_1_" gradientUnits="userSpaceOnUse" x1="74.98" x2="437.019" y1="437.019" y2="74.98"><stop offset="0" stop-color="#ff4c4c"/><stop offset="1" stop-color="#fff200"/></linearGradient><radialGradient id="SVGID_2_" cx="257.014" cy="256" gradientTransform="matrix(1 0 0 .8 0 51.169)" gradientUnits="userSpaceOnUse" r="256"><stop offset="0" stop-color="#ff4c4c"/><stop offset=".0308" stop-color="#ff5a50" stop-opacity=".968"/><stop offset=".1353" stop-color="#ff855b" stop-opacity=".858"/><stop offset=".2456" stop-color="#ffa964" stop-opacity=".743"/><stop offset=".3607" stop-color="#ffc66b" stop-opacity=".622"/><stop offset=".482" stop-color="#ffdd71" stop-opacity=".495"/><stop offset=".6126" stop-color="#ffed75" stop-opacity=".358"/><stop offset=".759" stop-color="#fff777" stop-opacity=".204"/><stop offset=".9537" stop-color="#fffa78" stop-opacity="0"/></radialGradient><linearGradient id="lg1"><stop offset="0" stop-color="#ff4c4c"/><stop offset=".0524" stop-color="#ff6753" stop-opacity=".945"/><stop offset=".1433" stop-color="#ff8e5d" stop-opacity=".85"/><stop offset=".2408" stop-color="#ffaf65" stop-opacity=".748"/><stop offset=".3444" stop-color="#ffcb6c" stop-opacity=".639"/><stop offset=".4564" stop-color="#ffe071" stop-opacity=".521"/><stop offset=".581" stop-color="#ffef75" stop-opacity=".391"/><stop offset=".7279" stop-color="#fff777" stop-opacity=".237"/><stop offset=".9537" stop-color="#fffa78" stop-opacity="0"/></linearGradient><radialGradient id="SVGID_3_" cx="254.986" cy="121.127" gradientTransform="matrix(1 0 0 .65 0 42.444)" gradientUnits="userSpaceOnUse" r="256" xlink:href="#lg1"/><radialGradient id="SVGID_4_" cx="256" cy="256" gradientUnits="userSpaceOnUse" r="256" xlink:href="#lg1"/><linearGradient id="lg2"><stop offset="0" stop-color="#ff8c00"/><stop offset=".5829" stop-color="#ffce48"/><stop offset="1" stop-color="#fffa78"/></linearGradient><linearGradient id="SVGID_5_" gradientUnits="userSpaceOnUse" x1="132.769" x2="420.274" xlink:href="#lg2" y1="543.741" y2="256.236"/><linearGradient id="SVGID_6_" gradientUnits="userSpaceOnUse" x1="192.302" x2="436.435" xlink:href="#lg2" y1="482.246" y2="238.114"/><linearGradient id="lg3"><stop offset="0" stop-color="#ffcb00"/><stop offset="1" stop-color="#fffa78"/></linearGradient><linearGradient id="SVGID_7_" gradientUnits="userSpaceOnUse" x1="126.236" x2="287.27" xlink:href="#lg3" y1="440.967" y2="279.932"/><linearGradient id="SVGID_8_" gradientUnits="userSpaceOnUse" x1="90.058" x2="256.734" xlink:href="#lg3" y1="486.649" y2="319.972"/><linearGradient id="lg4"><stop offset="0" stop-color="#ffcb00"/><stop offset=".6198" stop-color="#feec87"/><stop offset="1" stop-color="#feffd6"/></linearGradient><linearGradient id="SVGID_9_" gradientUnits="userSpaceOnUse" x1="273.396" x2="392.439" xlink:href="#lg4" y1="434.494" y2="315.451"/><linearGradient id="SVGID_10_" gradientUnits="userSpaceOnUse" x1="242.131" x2="406.542" y1="535.8" y2="371.389"><stop offset="0" stop-color="#ff8c00"/><stop offset=".1478" stop-color="#ff9409"/><stop offset=".3892" stop-color="#ffab21"/><stop offset=".694" stop-color="#ffcf49"/><stop offset="1" stop-color="#fffa78"/></linearGradient><linearGradient id="lg5"><stop offset="0" stop-color="#ffb11d"/><stop offset=".4622" stop-color="#ffd449"/><stop offset="1" stop-color="#fffa78"/></linearGradient><linearGradient id="SVGID_11_" gradientUnits="userSpaceOnUse" x1="127.165" x2="414.442" xlink:href="#lg5" y1="424.113" y2="136.836"/><linearGradient id="SVGID_12_" gradientUnits="userSpaceOnUse" x1="189.118" x2="432.572" xlink:href="#lg5" y1="360.746" y2="117.292"/><linearGradient id="SVGID_13_" gradientUnits="userSpaceOnUse" x1="114.706" x2="283.213" xlink:href="#lg3" y1="324.813" y2="156.307"/><linearGradient id="SVGID_14_" gradientUnits="userSpaceOnUse" x1="86.118" x2="256.022" xlink:href="#lg3" y1="363.162" y2="193.258"/><linearGradient id="SVGID_15_" gradientUnits="userSpaceOnUse" x1="252.785" x2="392.752" xlink:href="#lg4" y1="329.418" y2="189.451"/><linearGradient id="SVGID_16_" gradientUnits="userSpaceOnUse" x1="260.52" x2="422.652" xlink:href="#lg5" y1="393.335" y2="231.202"/><linearGradient id="lg6"><stop offset="0" stop-color="#ffcb00"/><stop offset=".5829" stop-color="#ffe748"/><stop offset="1" stop-color="#fffa78"/></linearGradient><linearGradient id="SVGID_17_" gradientUnits="userSpaceOnUse" x1="117.122" x2="399.149" xlink:href="#lg6" y1="307.546" y2="25.519"/><linearGradient id="SVGID_18_" gradientUnits="userSpaceOnUse" x1="196.713" x2="434.704" xlink:href="#lg6" y1="227.398" y2="-10.593"/><linearGradient id="SVGID_19_" gradientUnits="userSpaceOnUse" x1="99.11" x2="270.661" xlink:href="#lg3" y1="214.539" y2="42.988"/><linearGradient id="SVGID_20_" gradientUnits="userSpaceOnUse" x1="78.924" x2="249.88" xlink:href="#lg3" y1="244.407" y2="73.451"/><linearGradient id="SVGID_21_" gradientUnits="userSpaceOnUse" x1="334.578" x2="420.765" y1="119.575" y2="33.389"><stop offset="0" stop-color="#fffa78"/><stop offset=".6266" stop-color="#fffdcf"/><stop offset="1" stop-color="#fff"/></linearGradient><linearGradient id="SVGID_22_" gradientUnits="userSpaceOnUse" x1="249.461" x2="406.881" xlink:href="#lg6" y1="277.325" y2="119.904"/><g><circle cx="256" cy="256" fill="url(#SVGID_1_)" r="256"/><circle cx="256" cy="256" fill="url(#SVGID_2_)" r="256"/><circle cx="256" cy="256" fill="url(#SVGID_3_)" r="256"/><circle cx="256" cy="256" fill="url(#SVGID_4_)" r="256"/><path d="m379.18 336.464c-2.444-5.239-7.772-8.523-13.688-8.427-5.1.084-10.199.162-15.299.234-5.336 5.157-10.668 10.322-15.993 15.491.004-.015-.338-15.229-29.905-15-30.599.222-61.197.233-91.796.033.148 27.285.373 54.569.674 81.853 63.692.859 127.383-.198 191.075-3.171.005-.004-.002-16.35-4.258-25.713-6.794-14.992-13.743-30.099-20.81-45.3z" fill="url(#SVGID_5_)"/><path d="m413.242 411.328c-4.633-10.458-9.357-20.979-14.156-31.557 2.673 5.888-1.959 12.976-8.614 13.235-24.644.937-49.288 1.616-73.932 2.038-38.351.7-73.329-22.007-90.175-57.385-15.282-.076-30.563-.21-45.845-.403 25.466 29.685 50.778 59.53 75.471 89.057 30 0 60-.469 90-1.408 27.901-.947 25.568-16.097 25.556-16.069 6.516 4.816 12.999 9.587 19.444 14.309 5-.235 10-.482 15-.743 5.505-.293 9.404-6.22 7.251-11.074z" fill="url(#SVGID_6_)"/><path d="m132.82 336.464c-11.736 25.245-23.148 50.232-34.062 74.864-2.153 4.854 1.745 10.783 7.252 11.074 44.283 2.309 88.567 3.596 132.85 3.86-34.733-29.725-70.297-59.97-106.04-89.798z" fill="url(#SVGID_7_)"/><path d="m262.79 415.327c2.355 5.096-1.294 10.985-6.8 10.985-5.71 0-11.42-.017-17.13-.051-28.614-.16-55.12-12.585-74.915-32.374-15.378-15.405-26.633-35.216-31.125-57.423 2.445-5.242 7.772-8.522 13.688-8.427 21.997.362 43.994.614 65.991.758 5.917.036 11.307 3.483 13.865 8.863 12.284 25.907 24.483 51.829 36.426 77.669z" fill="url(#SVGID_8_)"/><path d="m363.898 336.759c-2.456-5.265-7.789-8.57-13.706-8.488-15.299.217-30.599.38-45.898.491 5.916-.041 11.269 3.322 13.759 8.648 8.909 19.113 17.692 38.143 26.276 57.049 7.455 4.898 14.877 9.751 22.262 14.553 7.677-5.326 15.377-10.654 23.095-15.976-8.381-18.604-17.001-37.376-25.788-56.277z" fill="url(#SVGID_9_)"/><path d="m389.686 393.036c-15.119.572-30.238 1.046-45.357 1.423 2.935 6.464 5.846 12.915 8.732 19.349 2.233 4.979-1.565 10.92-7.071 11.097 15-.469 30-1.056 45-1.76 5.506-.265 9.38-6.197 7.206-11.087-2.806-6.32-5.644-12.661-8.51-19.022z" fill="url(#SVGID_10_)"/><path d="m379.779 210.181c-2.591-5.317-8.015-8.756-13.949-8.816-5.116-.051-10.231-.099-15.347-.143-5.256 5.036-10.523 10.091-15.8 15.16.005.009-.598-15.303-30.24-15.461-30.693-.136-61.386-.143-92.079-.02-.091 27.284-.105 54.569-.043 81.853 64.957.177 129.914-.041 194.872-.654.007-.004-.528-16.374-5.133-25.901-7.353-15.252-14.793-30.599-22.281-46.018z" fill="url(#SVGID_11_)"/><path d="m416.511 286.299c-5.092-10.658-10.24-21.37-15.429-32.129 2.894 5.991-1.599 12.918-8.369 12.954-25.055.115-50.11.198-75.165.25-39.042.105-74.669-22.487-91.328-57.734-15.356.034-30.712.095-46.068.182 25.14 29.224 50.574 58.838 75.838 88.365 30.693 0 61.386-.129 92.079-.388 28.559-.269 25.781-15.426 25.773-15.421 6.769 5.008 13.526 9.989 20.266 14.936 5.115-.065 10.231-.133 15.347-.205 5.637-.08 9.424-5.861 7.056-10.81z" fill="url(#SVGID_12_)"/><path d="m132.221 210.181c-12.437 25.609-24.738 51.015-36.732 76.118-2.368 4.947 1.419 10.73 7.056 10.812 45.306.635 90.613.99 135.919 1.063-35.429-29.576-71.06-59.219-106.243-87.993z" fill="url(#SVGID_13_)"/><path d="m262.932 287.208c2.414 5.102-1.306 10.98-6.942 10.979-5.842 0-11.684-.004-17.526-.014-29.289-.044-56.307-12.018-76.045-31.361-15.35-15.059-26.249-34.546-30.198-56.632 2.591-5.316 8.016-8.756 13.949-8.816 22.065-.222 44.13-.377 66.195-.465 5.934-.024 11.316 3.379 13.855 8.74 12.189 25.82 24.483 51.709 36.712 77.569z" fill="url(#SVGID_14_)"/><path d="m364.423 210.047c-2.586-5.333-8.006-8.774-13.939-8.826-15.347-.132-30.693-.233-46.04-.301 5.933.026 11.341 3.471 13.911 8.833 9.194 19.249 18.367 38.445 27.446 57.549 7.673 5.063 15.337 10.103 22.987 15.113 7.711-5.118 15.421-10.217 23.126-15.288-9.054-18.901-18.242-37.942-27.491-57.08z" fill="url(#SVGID_15_)"/><path d="m391.915 267.127c-15.371.07-30.742.128-46.113.175 3.104 6.532 6.198 13.052 9.278 19.561 2.386 5.039-1.374 10.885-7.01 10.937 15.347-.129 30.693-.291 46.04-.485 5.637-.075 9.417-5.877 7.044-10.851-3.063-6.428-6.143-12.874-9.239-19.337z" fill="url(#SVGID_16_)"/><path d="m377.203 83.897c-2.673-5.393-8.055-8.991-13.853-9.206-5-.187-10-.36-15-.521-5.039 4.916-10.107 9.86-15.199 14.829.005.034-.844-15.375-29.801-15.922-30-.494-60-.518-90-.074-.33 27.285-.583 54.569-.76 81.853 64.557-.504 129.115.117 193.673 1.862.009-.001-1.037-16.398-5.874-26.088-7.724-15.508-15.465-31.094-23.186-46.733z" fill="url(#SVGID_17_)"/><path d="m415.664 161.27c-5.417-10.858-10.856-21.761-16.303-32.701 3.04 6.093-1.197 12.859-7.91 12.672-24.824-.707-49.648-1.219-74.471-1.537-38.733-.49-74.096-22.965-90.141-58.081-15.036.144-30.073.4-45.109.767 24.165 28.763 49.073 58.147 74.259 87.674 30.599 0 61.197.211 91.796.632 28.483.406 25.336-14.756 25.332-14.773 6.848 5.2 13.705 10.39 20.566 15.564 5.1.105 10.2.217 15.299.334 5.623.123 9.205-5.507 6.682-10.551z" fill="url(#SVGID_18_)"/><path d="m134.797 83.897c-12.823 25.973-25.701 51.797-38.461 77.372-2.522 5.043 1.059 10.676 6.682 10.55 45.167-1.037 90.334-1.616 135.501-1.734-35.217-29.425-70.008-58.467-103.722-86.188z" fill="url(#SVGID_19_)"/><path d="m262.895 159.089c2.41 5.107-1.283 10.974-6.905 10.974-5.824 0-11.648.008-17.472.023-29.212.076-56.05-11.451-75.227-30.347-14.93-14.715-25.193-33.875-28.495-55.841 2.673-5.392 8.055-8.989 13.853-9.206 21.567-.805 43.133-1.367 64.7-1.687 5.798-.087 11.034 3.276 13.489 8.618 11.782 25.73 23.858 51.585 36.057 77.466z" fill="url(#SVGID_20_)"/><path d="m362.167 83.335c-2.651-5.399-8.019-8.978-13.817-9.165-15-.482-30-.846-45-1.093 5.798.095 11.122 3.615 13.708 9.018 9.245 19.386 18.574 38.749 27.916 58.05 7.694 5.229 15.402 10.456 23.122 15.674 7.548-4.91 15.072-9.779 22.566-14.6-9.495-19.2-19.017-38.508-28.495-57.884z" fill="url(#SVGID_21_)"/><path d="m390.661 141.218c-15.229-.431-30.459-.789-45.688-1.074 3.194 6.599 6.389 13.19 9.583 19.773 2.478 5.097-1.149 10.853-6.771 10.778 15.299.211 30.599.474 45.898.791 5.622.113 9.215-5.553 6.704-10.614-3.236-6.538-6.479-13.089-9.726-19.654z" fill="url(#SVGID_22_)"/></g></svg>