<svg id="Capa_1" enable-background="new 0 0 512 512" height="512" viewBox="0 0 512 512" width="512" xmlns="http://www.w3.org/2000/svg" xmlns:xlink="http://www.w3.org/1999/xlink"><linearGradient id="SVGID_1_" gradientUnits="userSpaceOnUse" x1="74.981" x2="437.02" y1="437.019" y2="74.98"><stop offset="0" stop-color="#008a4c"/><stop offset="1" stop-color="#d3ff33"/></linearGradient><radialGradient id="SVGID_2_" cx="256.001" cy="256" gradientUnits="userSpaceOnUse" r="256"><stop offset="0" stop-color="#008a4c" stop-opacity=".8"/><stop offset=".109" stop-color="#0f924a" stop-opacity=".713"/><stop offset=".3171" stop-color="#35a746" stop-opacity=".546"/><stop offset=".6028" stop-color="#73c93e" stop-opacity=".318"/><stop offset=".9518" stop-color="#c7f834" stop-opacity=".039"/><stop offset="1" stop-color="#d3ff33" stop-opacity="0"/></radialGradient><linearGradient id="lg1"><stop offset="0" stop-color="#95e12e"/><stop offset=".3557" stop-color="#c0ed83"/><stop offset=".664" stop-color="#e2f7c6"/><stop offset=".8861" stop-color="#f7fdef"/><stop offset="1" stop-color="#fff"/></linearGradient><linearGradient id="SVGID_3_" gradientUnits="userSpaceOnUse" x1="107.315" x2="543.439" xlink:href="#lg1" y1="306.103" y2="-130.021"/><linearGradient id="SVGID_4_" gradientUnits="userSpaceOnUse" x1="98.196" x2="500.798" xlink:href="#lg1" y1="411.442" y2="8.839"/><linearGradient id="SVGID_5_" gradientUnits="userSpaceOnUse" x1="35.057" x2="383.212" xlink:href="#lg1" y1="404.716" y2="56.561"/><linearGradient id="lg2"><stop offset="0" stop-color="#5ccd38"/><stop offset=".0919" stop-color="#6bd240"/><stop offset=".5245" stop-color="#adea62"/><stop offset=".8387" stop-color="#d6f877"/><stop offset="1" stop-color="#e6fe7f"/></linearGradient><linearGradient id="SVGID_6_" gradientUnits="userSpaceOnUse" x1="184.543" x2="484.96" xlink:href="#lg2" y1="450.232" y2="149.815"/><linearGradient id="SVGID_7_" gradientUnits="userSpaceOnUse" x1="155.571" x2="504.658" xlink:href="#lg2" y1="533.824" y2="184.737"/><linearGradient id="SVGID_8_" gradientUnits="userSpaceOnUse" x1="146.964" x2="361.237" y1="521.396" y2="307.122"><stop offset="0" stop-color="#e6fe7f"/><stop offset=".0324" stop-color="#e7fe84"/><stop offset=".4934" stop-color="#f4ffc6"/><stop offset=".8281" stop-color="#fcffef"/><stop offset="1" stop-color="#fff"/></linearGradient><linearGradient id="SVGID_9_" gradientUnits="userSpaceOnUse" x1="263.749" x2="263.749" y1="371.252" y2="430.305"><stop offset="0" stop-color="#95e12e"/><stop offset=".0807" stop-color="#a3e549" stop-opacity=".919"/><stop offset=".2578" stop-color="#bfed80" stop-opacity=".742"/><stop offset=".4304" stop-color="#d6f3ae" stop-opacity=".57"/><stop offset=".5948" stop-color="#e8f8d1" stop-opacity=".405"/><stop offset=".7487" stop-color="#f5fcea" stop-opacity=".251"/><stop offset=".888" stop-color="#fcfefa" stop-opacity=".112"/><stop offset="1" stop-color="#fff" stop-opacity="0"/></linearGradient><linearGradient id="lg3"><stop offset="0" stop-color="#00aa45"/><stop offset=".3608" stop-color="#57cd3e"/><stop offset=".6666" stop-color="#9ae838"/><stop offset=".887" stop-color="#c3f934"/><stop offset="1" stop-color="#d3ff33"/></linearGradient><linearGradient id="SVGID_10_" gradientUnits="userSpaceOnUse" x1="324.991" x2="540.058" xlink:href="#lg3" y1="396.943" y2="181.875"/><linearGradient id="SVGID_11_" gradientUnits="userSpaceOnUse" x1="198.823" x2="521.613" xlink:href="#lg3" y1="335.084" y2="12.295"/><g><circle cx="256" cy="256" fill="url(#SVGID_1_)" r="256"/><circle cx="256" cy="256" fill="url(#SVGID_2_)" r="256"/><path d="m166 64.882c-24.792 1.216-45.695 22.855-46.419 47.618-2.608 95.667-2.608 191.333 0 287 30.315 1.595 60.631 2.658 90.946 3.189-1.006-113.126-.848-226.252.473-339.378-15 .349-30 .873-45 1.571z" fill="url(#SVGID_3_)"/><path d="m220.401 63.115c-3.134.057-6.268.123-9.401.196-24.795.613-45.443 22.062-45.946 47.196-1.557 86.856-1.719 173.713-.488 260.57 76.195 2.102 152.39 1.576 228.586-1.576 1.204-55.855 1.52-111.711.946-167.567-58.632-45.951-117.253-94.012-173.697-138.819z" fill="url(#SVGID_4_)"/><path d="m394.097 201.933c-.409-39.811-1.269-79.622-2.582-119.433-.278-8.276-7.238-15.467-15.516-15.989-10-.621-20-1.164-30-1.629-7.261 9.79-14.602 19.679-22.006 29.646-7.704-10.408-15.374-20.82-22.993-31.217-26.866-.625-53.732-.691-80.599-.196 23.009 74.988 91.563 131.303 173.696 138.818z" fill="url(#SVGID_5_)"/><path d="m378.181 355.017c-71.001 2.261-142.003 2.552-213.004.871-25.664-.527-46.734 19.276-45.568 44.395 1.14 24.392 21.897 45.637 46.391 46.836 10 .465 20 .853 30 1.164 50.287-13.467 101.193-29.283 152.512-46.052 9.674-5.675 19.374-11.366 29.094-17.056 8.388-.359 15.364-7.399 15.546-15.674.181-8.278-6.533-14.743-14.971-14.484z" fill="url(#SVGID_6_)"/><path d="m376.879 415.332c-9.421-4.27-18.878-8.642-28.367-13.102-66.198 2.375-132.395 2.2-198.592-.522.992 24.646 21.584 45.772 46.08 46.574 35 1.086 70 1.222 105 .407 7.619-10.397 15.289-20.809 22.994-31.217 7.404 9.967 14.745 19.856 22.006 29.646 10-.465 20-1.008 30-1.629 8.278-.521 15.235-7.714 15.516-15.989.278-8.276-6.286-14.591-14.637-14.168z" fill="url(#SVGID_7_)"/><path d="m164.795 386.285c-8.386-.255-15.078 6.286-14.899 14.633.179 8.344 7.119 15.454 15.445 15.784 70.513 2.74 141.025 2.283 211.538-1.37.268-10.052.51-20.105.727-30.157-70.937 2.961-141.874 3.331-212.811 1.11z" fill="url(#SVGID_8_)"/><path d="m164.795 386.285c-8.386-.255-15.078 6.286-14.899 14.633.179 8.344 7.119 15.454 15.445 15.784 70.513 2.74 141.025 2.283 211.538-1.37.268-10.052.51-20.105.727-30.157-70.937 2.961-141.874 3.331-212.811 1.11z" fill="url(#SVGID_9_)"/><path d="m301.818 356.689c-.187 30.667-.46 61.333-.818 92 15-.349 30-.873 45-1.571.716-30.417 1.261-60.833 1.635-91.25-7.511-9.957-15.073-19.992-22.671-30.084-7.727 10.283-15.448 20.591-23.146 30.905z" fill="url(#SVGID_10_)"/><path d="m346 64.882c-15-.698-30-1.222-45-1.571 1.142 97.793 1.415 195.585.818 293.378 15.273-.182 30.545-.456 45.818-.821 1.193-96.995.648-193.991-1.636-290.986z" fill="url(#SVGID_11_)"/></g></svg>