<svg id="Capa_1" enable-background="new 0 0 512 512" height="512" viewBox="0 0 512 512" width="512" xmlns="http://www.w3.org/2000/svg" xmlns:xlink="http://www.w3.org/1999/xlink"><linearGradient id="SVGID_1_" gradientUnits="userSpaceOnUse" x1="74.981" x2="437.02" y1="437.019" y2="74.98"><stop offset=".1" stop-color="#ff195e"/><stop offset="1" stop-color="#ffc5a3"/></linearGradient><radialGradient id="SVGID_2_" cx="256.001" cy="256" gradientUnits="userSpaceOnUse" r="256"><stop offset="0" stop-color="#ff195e"/><stop offset=".093" stop-color="#ff2466" stop-opacity=".907"/><stop offset=".2545" stop-color="#ff417a" stop-opacity=".746"/><stop offset=".4652" stop-color="#ff6f9a" stop-opacity=".535"/><stop offset=".717" stop-color="#ffafc7" stop-opacity=".283"/><stop offset="1" stop-color="#fff" stop-opacity="0"/></radialGradient><linearGradient id="lg1"><stop offset="0" stop-color="#ffb5d3"/><stop offset=".4183" stop-color="#ffdbea"/><stop offset=".7836" stop-color="#fff5f9"/><stop offset="1" stop-color="#fff"/></linearGradient><linearGradient id="SVGID_3_" gradientUnits="userSpaceOnUse" x1="238.938" x2="528.827" xlink:href="#lg1" y1="270.524" y2="-19.365"/><radialGradient id="SVGID_4_" cx="227.759" cy="278.261" gradientUnits="userSpaceOnUse" r="260.938"><stop offset="0" stop-color="#ffa9d4"/><stop offset="1" stop-color="#fff" stop-opacity="0"/></radialGradient><linearGradient id="lg2"><stop offset="0" stop-color="#ff91bb"/><stop offset=".0296" stop-color="#ff94bd"/><stop offset=".4617" stop-color="#ffbfd9"/><stop offset=".7997" stop-color="#ffd9eb"/><stop offset="1" stop-color="#ffe3f1"/></linearGradient><linearGradient id="SVGID_5_" gradientUnits="userSpaceOnUse" x1="201.609" x2="337.337" xlink:href="#lg2" y1="181.414" y2="45.686"/><linearGradient id="SVGID_6_" gradientUnits="userSpaceOnUse" x1="-40.112" x2="383.72" xlink:href="#lg1" y1="552.747" y2="128.916"/><linearGradient id="SVGID_7_" gradientUnits="userSpaceOnUse" x1="123.108" x2="404.711" y1="413.123" y2="131.52"><stop offset="0" stop-color="#ff79a2"/><stop offset=".2007" stop-color="#ff94b6"/><stop offset=".5565" stop-color="#ffbfd6"/><stop offset=".835" stop-color="#ffd9ea"/><stop offset="1" stop-color="#ffe3f1"/></linearGradient><linearGradient id="SVGID_8_" gradientUnits="userSpaceOnUse" x1="127.538" x2="438.968" xlink:href="#lg2" y1="384.912" y2="73.482"/><linearGradient id="SVGID_9_" gradientUnits="userSpaceOnUse" x1="119.221" x2="380.883" y1="330.477" y2="68.816"><stop offset="0" stop-color="#ff91bb"/><stop offset=".2229" stop-color="#ffb0ce"/><stop offset=".5688" stop-color="#ffdbe9"/><stop offset=".8396" stop-color="#fff5f9"/><stop offset="1" stop-color="#fff"/></linearGradient><g><circle cx="256" cy="256" fill="url(#SVGID_1_)" r="256"/><circle cx="256" cy="256" fill="url(#SVGID_2_)" r="256"/><path d="m379 67.536c-64.263-3.891-128.527-4.733-192.79-2.525-4.527.156-8.291 4.315-8.377 8.648-2.612 77.731 44.571 312.519 44.723 312.845 52.699.574 105.398-.209 158.097-2.35 8.386-.349 15.369-7.384 15.555-15.655 2.098-95 1.538-190-1.678-285-.286-8.269-7.257-15.454-15.53-15.963z" fill="url(#SVGID_3_)"/><path d="m379 67.536c-64.263-3.891-128.527-4.733-192.79-2.525-4.527.156-8.291 4.315-8.377 8.648-2.612 77.731 44.571 312.519 44.723 312.845 52.699.574 105.398-.209 158.097-2.35 8.386-.349 15.369-7.384 15.555-15.655 2.098-95 1.538-190-1.678-285-.286-8.269-7.257-15.454-15.53-15.963z" fill="url(#SVGID_4_)"/><path d="m177.833 73.66c-.08 4.006 2.666 7.353 6.531 7.984 47.598 7.789 95.528 17.348 143.711 27.943 3.91.858 6.794 4.389 6.854 8.395.266 12.492-7.559 69.235-7.62 69.263-50.335-.609-100.671-.573-151.006.108.279-37.899.789-75.796 1.53-113.693z" fill="url(#SVGID_5_)"/><path d="m326.728 126.128c-65.127-1.501-130.254-.929-195.381 1.717-8.387.349-15.369 7.384-15.555 15.655-2.098 95-1.538 190 1.678 285 .287 8.27 7.256 15.455 15.53 15.964 62 3.754 124 4.67 186 2.747 8.274-.26 15.136-7.361 15.3-15.776 1.966-104.485 2.176-208.969.629-313.454.068 4.606-3.608 8.251-8.201 8.147z" fill="url(#SVGID_6_)"/><path d="m145.491 205.657c-.529 69.79.042 139.58 1.714 209.369 52.383 2.322 104.765 2.967 157.148 1.935-51.64-69.607-106.184-142.25-158.862-211.304z" fill="url(#SVGID_7_)"/><path d="m174.41 156.884c-9.46.191-18.92.414-28.38.671-.238 16.034-.418 32.067-.539 48.101-.725 96.027 66.497 185.177 158.862 211.305.23 0 1.075-154.057.845-154.057-43.76-35.479-87.686-71.568-130.788-106.02z" fill="url(#SVGID_8_)"/><path d="m174.41 156.884c17.374 56.682 68.813 99.902 130.788 106.02.016-35.516-.092-71.031-.323-106.547-43.488-.524-86.977-.349-130.465.527z" fill="url(#SVGID_9_)"/></g></svg>